<?xml version="1.0" encoding="UTF-8" standalone="no"?>
<!DOCTYPE svg PUBLIC "-//W3C//DTD SVG 1.1//EN"
 "http://www.w3.org/Graphics/SVG/1.1/DTD/svg11.dtd">
<!-- Generated by graphviz version 2.38.0 (20140413.2041)
 -->
<!-- Title: G Pages: 1 -->
<svg width="1222pt" height="577pt"
 viewBox="0.00 0.00 1222.00 577.00" xmlns="http://www.w3.org/2000/svg" xmlns:xlink="http://www.w3.org/1999/xlink">
<g id="graph0" class="graph" transform="scale(1 1) rotate(0) translate(4 573)">
<title>G</title>
<polygon fill="white" stroke="none" points="-4,4 -4,-573 1218,-573 1218,4 -4,4"/>
<g id="clust1" class="cluster"><title>cluster_root</title>
<g id="a_clust1"><a xlink:title="eventq_index&#61;0&#10;full_system&#61;false&#10;sim_quantum&#61;0&#10;time_sync_enable&#61;false&#10;time_sync_period&#61;100000000000&#10;time_sync_spin_threshold&#61;100000000">
<path fill="#bab6ae" stroke="#000000" d="M20,-8C20,-8 1194,-8 1194,-8 1200,-8 1206,-14 1206,-20 1206,-20 1206,-549 1206,-549 1206,-555 1200,-561 1194,-561 1194,-561 20,-561 20,-561 14,-561 8,-555 8,-549 8,-549 8,-20 8,-20 8,-14 14,-8 20,-8"/>
<text text-anchor="middle" x="607" y="-545.8" font-family="Arial" font-size="14.00" fill="#000000">root </text>
<text text-anchor="middle" x="607" y="-530.8" font-family="Arial" font-size="14.00" fill="#000000">: Root</text>
</a>
</g>
</g>
<g id="clust2" class="cluster"><title>cluster_system</title>
<g id="a_clust2"><a xlink:title="boot_osflags&#61;a&#10;cache_line_size&#61;64&#10;clk_domain&#61;system.clk_domain&#10;default_p_state&#61;UNDEFINED&#10;eventq_index&#61;0&#10;exit_on_work_items&#61;false&#10;init_param&#61;0&#10;kernel&#61;&#10;kernel_addr_check&#61;true&#10;load_addr_mask&#61;1099511627775&#10;load_offset&#61;0&#10;mem_mode&#61;atomic&#10;mem_ranges&#61;0:536870911:0:0:0:0&#10;memories&#61;system.mem_ctrls&#10;mmap_using_noreserve&#61;false&#10;multi_thread&#61;false&#10;num_work_ids&#61;16&#10;p_state_clk_gate_bins&#61;20&#10;p_state_clk_gate_max&#61;1000000000000&#10;p_state_clk_gate_min&#61;1000&#10;power_model&#61;Null&#10;readfile&#61;&#10;symbolfile&#61;&#10;thermal_components&#61;&#10;thermal_model&#61;Null&#10;work_begin_ckpt_count&#61;0&#10;work_begin_cpu_id_exit&#61;&#45;1&#10;work_begin_exit_count&#61;0&#10;work_cpus_ckpt_count&#61;0&#10;work_end_ckpt_count&#61;0&#10;work_end_exit_count&#61;0&#10;work_item_id&#61;&#45;1">
<path fill="#e4e7eb" stroke="#000000" d="M28,-16C28,-16 1186,-16 1186,-16 1192,-16 1198,-22 1198,-28 1198,-28 1198,-503 1198,-503 1198,-509 1192,-515 1186,-515 1186,-515 28,-515 28,-515 22,-515 16,-509 16,-503 16,-503 16,-28 16,-28 16,-22 22,-16 28,-16"/>
<text text-anchor="middle" x="607" y="-499.8" font-family="Arial" font-size="14.00" fill="#000000">system </text>
<text text-anchor="middle" x="607" y="-484.8" font-family="Arial" font-size="14.00" fill="#000000">: System</text>
</a>
</g>
</g>
<g id="clust3" class="cluster"><title>cluster_system_membus</title>
<g id="a_clust3"><a xlink:title="clk_domain&#61;system.clk_domain&#10;default_p_state&#61;UNDEFINED&#10;eventq_index&#61;0&#10;forward_latency&#61;4&#10;frontend_latency&#61;3&#10;p_state_clk_gate_bins&#61;20&#10;p_state_clk_gate_max&#61;1000000000000&#10;p_state_clk_gate_min&#61;1000&#10;point_of_coherency&#61;true&#10;power_model&#61;Null&#10;response_latency&#61;2&#10;snoop_filter&#61;system.membus.snoop_filter&#10;snoop_response_latency&#61;4&#10;system&#61;system&#10;use_default_range&#61;false&#10;width&#61;16">
<path fill="#6f798c" stroke="#000000" d="M553,-155C553,-155 677,-155 677,-155 683,-155 689,-161 689,-167 689,-167 689,-234 689,-234 689,-240 683,-246 677,-246 677,-246 553,-246 553,-246 547,-246 541,-240 541,-234 541,-234 541,-167 541,-167 541,-161 547,-155 553,-155"/>
<text text-anchor="middle" x="615" y="-230.8" font-family="Arial" font-size="14.00" fill="#000000">membus </text>
<text text-anchor="middle" x="615" y="-215.8" font-family="Arial" font-size="14.00" fill="#000000">: SystemXBar</text>
</a>
</g>
</g>
<g id="clust8" class="cluster"><title>cluster_system_mem_ctrls</title>
<g id="a_clust8"><a xlink:title="IDD0&#61;0.055000&#10;IDD02&#61;0.000000&#10;IDD2N&#61;0.032000&#10;IDD2N2&#61;0.000000&#10;IDD2P0&#61;0.000000&#10;IDD2P02&#61;0.000000&#10;IDD2P1&#61;0.032000&#10;IDD2P12&#61;0.000000&#10;IDD3N&#61;0.038000&#10;IDD3N2&#61;0.000000&#10;IDD3P0&#61;0.000000&#10;IDD3P02&#61;0.000000&#10;IDD3P1&#61;0.038000&#10;IDD3P12&#61;0.000000&#10;IDD4R&#61;0.157000&#10;IDD4R2&#61;0.000000&#10;IDD4W&#61;0.125000&#10;IDD4W2&#61;0.000000&#10;IDD5&#61;0.235000&#10;IDD52&#61;0.000000&#10;IDD6&#61;0.020000&#10;IDD62&#61;0.000000&#10;VDD&#61;1.500000&#10;VDD2&#61;0.000000&#10;activation_limit&#61;4&#10;addr_mapping&#61;RoRaBaCoCh&#10;bank_groups_per_rank&#61;0&#10;banks_per_rank&#61;8&#10;burst_length&#61;8&#10;channels&#61;1&#10;clk_domain&#61;system.clk_domain&#10;conf_table_reported&#61;true&#10;default_p_state&#61;UNDEFINED&#10;device_bus_width&#61;8&#10;device_rowbuffer_size&#61;1024&#10;device_size&#61;536870912&#10;devices_per_rank&#61;8&#10;dll&#61;true&#10;eventq_index&#61;0&#10;in_addr_map&#61;true&#10;kvm_map&#61;true&#10;max_accesses_per_row&#61;16&#10;mem_sched_policy&#61;frfcfs&#10;min_writes_per_switch&#61;16&#10;null&#61;false&#10;p_state_clk_gate_bins&#61;20&#10;p_state_clk_gate_max&#61;1000000000000&#10;p_state_clk_gate_min&#61;1000&#10;page_policy&#61;open_adaptive&#10;power_model&#61;Null&#10;range&#61;0:536870911:6:19:0:0&#10;ranks_per_channel&#61;2&#10;read_buffer_size&#61;32&#10;static_backend_latency&#61;10000&#10;static_frontend_latency&#61;10000&#10;tBURST&#61;5000&#10;tCCD_L&#61;0&#10;tCK&#61;1250&#10;tCL&#61;13750&#10;tCS&#61;2500&#10;tRAS&#61;35000&#10;tRCD&#61;13750&#10;tREFI&#61;7800000&#10;tRFC&#61;260000&#10;tRP&#61;13750&#10;tRRD&#61;6000&#10;tRRD_L&#61;0&#10;tRTP&#61;7500&#10;tRTW&#61;2500&#10;tWR&#61;15000&#10;tWTR&#61;7500&#10;tXAW&#61;30000&#10;tXP&#61;6000&#10;tXPDLL&#61;0&#10;tXS&#61;270000&#10;tXSDLL&#61;0&#10;write_buffer_size&#61;64&#10;write_high_thresh_perc&#61;85&#10;write_low_thresh_perc&#61;50">
<path fill="#5e5958" stroke="#000000" d="M595,-24C595,-24 708,-24 708,-24 714,-24 720,-30 720,-36 720,-36 720,-103 720,-103 720,-109 714,-115 708,-115 708,-115 595,-115 595,-115 589,-115 583,-109 583,-103 583,-103 583,-36 583,-36 583,-30 589,-24 595,-24"/>
<text text-anchor="middle" x="651.5" y="-99.8" font-family="Arial" font-size="14.00" fill="#000000">mem_ctrls </text>
<text text-anchor="middle" x="651.5" y="-84.8" font-family="Arial" font-size="14.00" fill="#000000">: DDR3_1600_8x8</text>
</a>
</g>
</g>
<g id="clust11" class="cluster"><title>cluster_system_cpu0</title>
<g id="a_clust11"><a xlink:title="branchPred&#61;Null&#10;checker&#61;Null&#10;clk_domain&#61;system.cpu_clk_domain&#10;cpu_id&#61;0&#10;default_p_state&#61;UNDEFINED&#10;do_checkpoint_insts&#61;true&#10;do_quiesce&#61;true&#10;do_statistics_insts&#61;true&#10;dstage2_mmu&#61;system.cpu0.dstage2_mmu&#10;dtb&#61;system.cpu0.dtb&#10;eventq_index&#61;0&#10;fastmem&#61;false&#10;function_trace&#61;false&#10;function_trace_start&#61;0&#10;interrupts&#61;system.cpu0.interrupts&#10;isa&#61;system.cpu0.isa&#10;istage2_mmu&#61;system.cpu0.istage2_mmu&#10;itb&#61;system.cpu0.itb&#10;max_insts_all_threads&#61;0&#10;max_insts_any_thread&#61;0&#10;max_loads_all_threads&#61;0&#10;max_loads_any_thread&#61;0&#10;numThreads&#61;1&#10;p_state_clk_gate_bins&#61;20&#10;p_state_clk_gate_max&#61;1000000000000&#10;p_state_clk_gate_min&#61;1000&#10;power_model&#61;Null&#10;profile&#61;0&#10;progress_interval&#61;0&#10;simpoint_start_insts&#61;&#10;simulate_data_stalls&#61;false&#10;simulate_inst_stalls&#61;false&#10;socket_id&#61;0&#10;switched_out&#61;false&#10;syscallRetryLatency&#61;10000&#10;system&#61;system&#10;tracer&#61;system.cpu0.tracer&#10;wait_for_remote_gdb&#61;false&#10;width&#61;1&#10;workload&#61;system.cpu0.workload">
<path fill="#bbc6d9" stroke="#000000" d="M676,-270C676,-270 1178,-270 1178,-270 1184,-270 1190,-276 1190,-282 1190,-282 1190,-457 1190,-457 1190,-463 1184,-469 1178,-469 1178,-469 676,-469 676,-469 670,-469 664,-463 664,-457 664,-457 664,-282 664,-282 664,-276 670,-270 676,-270"/>
<text text-anchor="middle" x="927" y="-453.8" font-family="Arial" font-size="14.00" fill="#000000">cpu0 </text>
<text text-anchor="middle" x="927" y="-438.8" font-family="Arial" font-size="14.00" fill="#000000">: AtomicSimpleCPU</text>
</a>
</g>
</g>
<g id="clust13" class="cluster"><title>cluster_system_cpu0_dtb</title>
<g id="a_clust13"><a xlink:title="eventq_index&#61;0&#10;is_stage2&#61;false&#10;size&#61;64&#10;sys&#61;system&#10;walker&#61;system.cpu0.dtb.walker">
<path fill="#bab6ae" stroke="#000000" d="M1050,-278C1050,-278 1170,-278 1170,-278 1176,-278 1182,-284 1182,-290 1182,-290 1182,-411 1182,-411 1182,-417 1176,-423 1170,-423 1170,-423 1050,-423 1050,-423 1044,-423 1038,-417 1038,-411 1038,-411 1038,-290 1038,-290 1038,-284 1044,-278 1050,-278"/>
<text text-anchor="middle" x="1110" y="-407.8" font-family="Arial" font-size="14.00" fill="#000000">dtb </text>
<text text-anchor="middle" x="1110" y="-392.8" font-family="Arial" font-size="14.00" fill="#000000">: ArmTLB</text>
</a>
</g>
</g>
<g id="clust14" class="cluster"><title>cluster_system_cpu0_dtb_walker</title>
<g id="a_clust14"><a xlink:title="clk_domain&#61;system.cpu_clk_domain&#10;default_p_state&#61;UNDEFINED&#10;eventq_index&#61;0&#10;is_stage2&#61;false&#10;num_squash_per_cycle&#61;2&#10;p_state_clk_gate_bins&#61;20&#10;p_state_clk_gate_max&#61;1000000000000&#10;p_state_clk_gate_min&#61;1000&#10;power_model&#61;Null&#10;sys&#61;system">
<path fill="#9f9c95" stroke="#000000" d="M1058,-286C1058,-286 1162,-286 1162,-286 1168,-286 1174,-292 1174,-298 1174,-298 1174,-365 1174,-365 1174,-371 1168,-377 1162,-377 1162,-377 1058,-377 1058,-377 1052,-377 1046,-371 1046,-365 1046,-365 1046,-298 1046,-298 1046,-292 1052,-286 1058,-286"/>
<text text-anchor="middle" x="1110" y="-361.8" font-family="Arial" font-size="14.00" fill="#000000">walker </text>
<text text-anchor="middle" x="1110" y="-346.8" font-family="Arial" font-size="14.00" fill="#000000">: ArmTableWalker</text>
</a>
</g>
</g>
<g id="clust16" class="cluster"><title>cluster_system_cpu0_itb</title>
<g id="a_clust16"><a xlink:title="eventq_index&#61;0&#10;is_stage2&#61;false&#10;size&#61;64&#10;sys&#61;system&#10;walker&#61;system.cpu0.itb.walker">
<path fill="#bab6ae" stroke="#000000" d="M898,-278C898,-278 1018,-278 1018,-278 1024,-278 1030,-284 1030,-290 1030,-290 1030,-411 1030,-411 1030,-417 1024,-423 1018,-423 1018,-423 898,-423 898,-423 892,-423 886,-417 886,-411 886,-411 886,-290 886,-290 886,-284 892,-278 898,-278"/>
<text text-anchor="middle" x="958" y="-407.8" font-family="Arial" font-size="14.00" fill="#000000">itb </text>
<text text-anchor="middle" x="958" y="-392.8" font-family="Arial" font-size="14.00" fill="#000000">: ArmTLB</text>
</a>
</g>
</g>
<g id="clust17" class="cluster"><title>cluster_system_cpu0_itb_walker</title>
<g id="a_clust17"><a xlink:title="clk_domain&#61;system.cpu_clk_domain&#10;default_p_state&#61;UNDEFINED&#10;eventq_index&#61;0&#10;is_stage2&#61;false&#10;num_squash_per_cycle&#61;2&#10;p_state_clk_gate_bins&#61;20&#10;p_state_clk_gate_max&#61;1000000000000&#10;p_state_clk_gate_min&#61;1000&#10;power_model&#61;Null&#10;sys&#61;system">
<path fill="#9f9c95" stroke="#000000" d="M906,-286C906,-286 1010,-286 1010,-286 1016,-286 1022,-292 1022,-298 1022,-298 1022,-365 1022,-365 1022,-371 1016,-377 1010,-377 1010,-377 906,-377 906,-377 900,-377 894,-371 894,-365 894,-365 894,-298 894,-298 894,-292 900,-286 906,-286"/>
<text text-anchor="middle" x="958" y="-361.8" font-family="Arial" font-size="14.00" fill="#000000">walker </text>
<text text-anchor="middle" x="958" y="-346.8" font-family="Arial" font-size="14.00" fill="#000000">: ArmTableWalker</text>
</a>
</g>
</g>
<g id="clust26" class="cluster"><title>cluster_system_cpu1</title>
<g id="a_clust26"><a xlink:title="branchPred&#61;Null&#10;checker&#61;Null&#10;clk_domain&#61;system.cpu_clk_domain&#10;cpu_id&#61;1&#10;default_p_state&#61;UNDEFINED&#10;do_checkpoint_insts&#61;true&#10;do_quiesce&#61;true&#10;do_statistics_insts&#61;true&#10;dstage2_mmu&#61;system.cpu1.dstage2_mmu&#10;dtb&#61;system.cpu1.dtb&#10;eventq_index&#61;0&#10;fastmem&#61;false&#10;function_trace&#61;false&#10;function_trace_start&#61;0&#10;interrupts&#61;system.cpu1.interrupts&#10;isa&#61;system.cpu1.isa&#10;istage2_mmu&#61;system.cpu1.istage2_mmu&#10;itb&#61;system.cpu1.itb&#10;max_insts_all_threads&#61;0&#10;max_insts_any_thread&#61;0&#10;max_loads_all_threads&#61;0&#10;max_loads_any_thread&#61;0&#10;numThreads&#61;1&#10;p_state_clk_gate_bins&#61;20&#10;p_state_clk_gate_max&#61;1000000000000&#10;p_state_clk_gate_min&#61;1000&#10;power_model&#61;Null&#10;profile&#61;0&#10;progress_interval&#61;0&#10;simpoint_start_insts&#61;&#10;simulate_data_stalls&#61;false&#10;simulate_inst_stalls&#61;false&#10;socket_id&#61;0&#10;switched_out&#61;false&#10;syscallRetryLatency&#61;10000&#10;system&#61;system&#10;tracer&#61;system.cpu1.tracer&#10;wait_for_remote_gdb&#61;false&#10;width&#61;1&#10;workload&#61;system.cpu0.workload">
<path fill="#bbc6d9" stroke="#000000" d="M142,-270C142,-270 644,-270 644,-270 650,-270 656,-276 656,-282 656,-282 656,-457 656,-457 656,-463 650,-469 644,-469 644,-469 142,-469 142,-469 136,-469 130,-463 130,-457 130,-457 130,-282 130,-282 130,-276 136,-270 142,-270"/>
<text text-anchor="middle" x="393" y="-453.8" font-family="Arial" font-size="14.00" fill="#000000">cpu1 </text>
<text text-anchor="middle" x="393" y="-438.8" font-family="Arial" font-size="14.00" fill="#000000">: AtomicSimpleCPU</text>
</a>
</g>
</g>
<g id="clust27" class="cluster"><title>cluster_system_cpu1_dtb</title>
<g id="a_clust27"><a xlink:title="eventq_index&#61;0&#10;is_stage2&#61;false&#10;size&#61;64&#10;sys&#61;system&#10;walker&#61;system.cpu1.dtb.walker">
<path fill="#bab6ae" stroke="#000000" d="M516,-278C516,-278 636,-278 636,-278 642,-278 648,-284 648,-290 648,-290 648,-411 648,-411 648,-417 642,-423 636,-423 636,-423 516,-423 516,-423 510,-423 504,-417 504,-411 504,-411 504,-290 504,-290 504,-284 510,-278 516,-278"/>
<text text-anchor="middle" x="576" y="-407.8" font-family="Arial" font-size="14.00" fill="#000000">dtb </text>
<text text-anchor="middle" x="576" y="-392.8" font-family="Arial" font-size="14.00" fill="#000000">: ArmTLB</text>
</a>
</g>
</g>
<g id="clust28" class="cluster"><title>cluster_system_cpu1_dtb_walker</title>
<g id="a_clust28"><a xlink:title="clk_domain&#61;system.cpu_clk_domain&#10;default_p_state&#61;UNDEFINED&#10;eventq_index&#61;0&#10;is_stage2&#61;false&#10;num_squash_per_cycle&#61;2&#10;p_state_clk_gate_bins&#61;20&#10;p_state_clk_gate_max&#61;1000000000000&#10;p_state_clk_gate_min&#61;1000&#10;power_model&#61;Null&#10;sys&#61;system">
<path fill="#9f9c95" stroke="#000000" d="M524,-286C524,-286 628,-286 628,-286 634,-286 640,-292 640,-298 640,-298 640,-365 640,-365 640,-371 634,-377 628,-377 628,-377 524,-377 524,-377 518,-377 512,-371 512,-365 512,-365 512,-298 512,-298 512,-292 518,-286 524,-286"/>
<text text-anchor="middle" x="576" y="-361.8" font-family="Arial" font-size="14.00" fill="#000000">walker </text>
<text text-anchor="middle" x="576" y="-346.8" font-family="Arial" font-size="14.00" fill="#000000">: ArmTableWalker</text>
</a>
</g>
</g>
<g id="clust30" class="cluster"><title>cluster_system_cpu1_itb</title>
<g id="a_clust30"><a xlink:title="eventq_index&#61;0&#10;is_stage2&#61;false&#10;size&#61;64&#10;sys&#61;system&#10;walker&#61;system.cpu1.itb.walker">
<path fill="#bab6ae" stroke="#000000" d="M364,-278C364,-278 484,-278 484,-278 490,-278 496,-284 496,-290 496,-290 496,-411 496,-411 496,-417 490,-423 484,-423 484,-423 364,-423 364,-423 358,-423 352,-417 352,-411 352,-411 352,-290 352,-290 352,-284 358,-278 364,-278"/>
<text text-anchor="middle" x="424" y="-407.8" font-family="Arial" font-size="14.00" fill="#000000">itb </text>
<text text-anchor="middle" x="424" y="-392.8" font-family="Arial" font-size="14.00" fill="#000000">: ArmTLB</text>
</a>
</g>
</g>
<g id="clust31" class="cluster"><title>cluster_system_cpu1_itb_walker</title>
<g id="a_clust31"><a xlink:title="clk_domain&#61;system.cpu_clk_domain&#10;default_p_state&#61;UNDEFINED&#10;eventq_index&#61;0&#10;is_stage2&#61;false&#10;num_squash_per_cycle&#61;2&#10;p_state_clk_gate_bins&#61;20&#10;p_state_clk_gate_max&#61;1000000000000&#10;p_state_clk_gate_min&#61;1000&#10;power_model&#61;Null&#10;sys&#61;system">
<path fill="#9f9c95" stroke="#000000" d="M372,-286C372,-286 476,-286 476,-286 482,-286 488,-292 488,-298 488,-298 488,-365 488,-365 488,-371 482,-377 476,-377 476,-377 372,-377 372,-377 366,-377 360,-371 360,-365 360,-365 360,-298 360,-298 360,-292 366,-286 372,-286"/>
<text text-anchor="middle" x="424" y="-361.8" font-family="Arial" font-size="14.00" fill="#000000">walker </text>
<text text-anchor="middle" x="424" y="-346.8" font-family="Arial" font-size="14.00" fill="#000000">: ArmTableWalker</text>
</a>
</g>
</g>
<!-- system_system_port -->
<g id="node1" class="node"><title>system_system_port</title>
<path fill="#b6b8bc" stroke="#000000" d="M36.5,-294.5C36.5,-294.5 107.5,-294.5 107.5,-294.5 113.5,-294.5 119.5,-300.5 119.5,-306.5 119.5,-306.5 119.5,-318.5 119.5,-318.5 119.5,-324.5 113.5,-330.5 107.5,-330.5 107.5,-330.5 36.5,-330.5 36.5,-330.5 30.5,-330.5 24.5,-324.5 24.5,-318.5 24.5,-318.5 24.5,-306.5 24.5,-306.5 24.5,-300.5 30.5,-294.5 36.5,-294.5"/>
<text text-anchor="middle" x="72" y="-308.8" font-family="Arial" font-size="14.00" fill="#000000">system_port</text>
</g>
<!-- system_membus_slave -->
<g id="node3" class="node"><title>system_membus_slave</title>
<path fill="#586070" stroke="#000000" d="M561,-163.5C561,-163.5 591,-163.5 591,-163.5 597,-163.5 603,-169.5 603,-175.5 603,-175.5 603,-187.5 603,-187.5 603,-193.5 597,-199.5 591,-199.5 591,-199.5 561,-199.5 561,-199.5 555,-199.5 549,-193.5 549,-187.5 549,-187.5 549,-175.5 549,-175.5 549,-169.5 555,-163.5 561,-163.5"/>
<text text-anchor="middle" x="576" y="-177.8" font-family="Arial" font-size="14.00" fill="#000000">slave</text>
</g>
<!-- system_system_port&#45;&gt;system_membus_slave -->
<g id="edge1" class="edge"><title>system_system_port&#45;&gt;system_membus_slave</title>
<path fill="none" stroke="black" d="M90.0885,-294.166C99.9698,-285.633 112.85,-275.93 126,-270 269.383,-205.341 459.567,-188.367 538.844,-183.988"/>
<polygon fill="black" stroke="black" points="539.031,-187.483 548.837,-183.471 538.67,-180.492 539.031,-187.483"/>
</g>
<!-- system_membus_master -->
<g id="node2" class="node"><title>system_membus_master</title>
<path fill="#586070" stroke="#000000" d="M633,-163.5C633,-163.5 669,-163.5 669,-163.5 675,-163.5 681,-169.5 681,-175.5 681,-175.5 681,-187.5 681,-187.5 681,-193.5 675,-199.5 669,-199.5 669,-199.5 633,-199.5 633,-199.5 627,-199.5 621,-193.5 621,-187.5 621,-187.5 621,-175.5 621,-175.5 621,-169.5 627,-163.5 633,-163.5"/>
<text text-anchor="middle" x="651" y="-177.8" font-family="Arial" font-size="14.00" fill="#000000">master</text>
</g>
<!-- system_mem_ctrls_port -->
<g id="node4" class="node"><title>system_mem_ctrls_port</title>
<path fill="#4b4746" stroke="#000000" d="M636,-32.5C636,-32.5 666,-32.5 666,-32.5 672,-32.5 678,-38.5 678,-44.5 678,-44.5 678,-56.5 678,-56.5 678,-62.5 672,-68.5 666,-68.5 666,-68.5 636,-68.5 636,-68.5 630,-68.5 624,-62.5 624,-56.5 624,-56.5 624,-44.5 624,-44.5 624,-38.5 630,-32.5 636,-32.5"/>
<text text-anchor="middle" x="651" y="-46.8" font-family="Arial" font-size="14.00" fill="#000000">port</text>
</g>
<!-- system_membus_master&#45;&gt;system_mem_ctrls_port -->
<g id="edge2" class="edge"><title>system_membus_master&#45;&gt;system_mem_ctrls_port</title>
<path fill="none" stroke="black" d="M651,-163.37C651,-141.781 651,-104.412 651,-78.852"/>
<polygon fill="black" stroke="black" points="654.5,-78.701 651,-68.7011 647.5,-78.7011 654.5,-78.701"/>
</g>
<!-- system_cpu0_icache_port -->
<g id="node5" class="node"><title>system_cpu0_icache_port</title>
<path fill="#959ead" stroke="#000000" d="M798.5,-294.5C798.5,-294.5 865.5,-294.5 865.5,-294.5 871.5,-294.5 877.5,-300.5 877.5,-306.5 877.5,-306.5 877.5,-318.5 877.5,-318.5 877.5,-324.5 871.5,-330.5 865.5,-330.5 865.5,-330.5 798.5,-330.5 798.5,-330.5 792.5,-330.5 786.5,-324.5 786.5,-318.5 786.5,-318.5 786.5,-306.5 786.5,-306.5 786.5,-300.5 792.5,-294.5 798.5,-294.5"/>
<text text-anchor="middle" x="832" y="-308.8" font-family="Arial" font-size="14.00" fill="#000000">icache_port</text>
</g>
<!-- system_cpu0_icache_port&#45;&gt;system_membus_slave -->
<g id="edge3" class="edge"><title>system_cpu0_icache_port&#45;&gt;system_membus_slave</title>
<path fill="none" stroke="black" d="M814.129,-294.335C804.02,-285.629 790.688,-275.714 777,-270 708.613,-241.455 673.172,-287.827 612,-246 599.246,-237.279 590.474,-222.462 584.785,-209.333"/>
<polygon fill="black" stroke="black" points="587.935,-207.779 581.021,-199.752 581.42,-210.339 587.935,-207.779"/>
</g>
<!-- system_cpu0_dcache_port -->
<g id="node6" class="node"><title>system_cpu0_dcache_port</title>
<path fill="#959ead" stroke="#000000" d="M684,-294.5C684,-294.5 756,-294.5 756,-294.5 762,-294.5 768,-300.5 768,-306.5 768,-306.5 768,-318.5 768,-318.5 768,-324.5 762,-330.5 756,-330.5 756,-330.5 684,-330.5 684,-330.5 678,-330.5 672,-324.5 672,-318.5 672,-318.5 672,-306.5 672,-306.5 672,-300.5 678,-294.5 684,-294.5"/>
<text text-anchor="middle" x="720" y="-308.8" font-family="Arial" font-size="14.00" fill="#000000">dcache_port</text>
</g>
<!-- system_cpu0_dcache_port&#45;&gt;system_membus_slave -->
<g id="edge4" class="edge"><title>system_cpu0_dcache_port&#45;&gt;system_membus_slave</title>
<path fill="none" stroke="black" d="M687.829,-294.361C660.456,-279.356 623.763,-258.114 612,-246 601.69,-235.382 593.295,-221.238 587.213,-208.993"/>
<polygon fill="black" stroke="black" points="590.26,-207.247 582.839,-199.685 583.924,-210.224 590.26,-207.247"/>
</g>
<!-- system_cpu0_dtb_walker_port -->
<g id="node7" class="node"><title>system_cpu0_dtb_walker_port</title>
<path fill="#7f7c77" stroke="#000000" d="M1066,-294.5C1066,-294.5 1096,-294.5 1096,-294.5 1102,-294.5 1108,-300.5 1108,-306.5 1108,-306.5 1108,-318.5 1108,-318.5 1108,-324.5 1102,-330.5 1096,-330.5 1096,-330.5 1066,-330.5 1066,-330.5 1060,-330.5 1054,-324.5 1054,-318.5 1054,-318.5 1054,-306.5 1054,-306.5 1054,-300.5 1060,-294.5 1066,-294.5"/>
<text text-anchor="middle" x="1081" y="-308.8" font-family="Arial" font-size="14.00" fill="#000000">port</text>
</g>
<!-- system_cpu0_dtb_walker_port&#45;&gt;system_membus_slave -->
<g id="edge5" class="edge"><title>system_cpu0_dtb_walker_port&#45;&gt;system_membus_slave</title>
<path fill="none" stroke="black" d="M1063.8,-294.285C1053.69,-285.333 1040.15,-275.199 1026,-270 939.501,-238.214 690.25,-294.676 612,-246 598.579,-237.651 589.69,-222.364 584.103,-208.882"/>
<polygon fill="black" stroke="black" points="587.379,-207.651 580.601,-199.508 580.822,-210.101 587.379,-207.651"/>
</g>
<!-- system_cpu0_itb_walker_port -->
<g id="node8" class="node"><title>system_cpu0_itb_walker_port</title>
<path fill="#7f7c77" stroke="#000000" d="M914,-294.5C914,-294.5 944,-294.5 944,-294.5 950,-294.5 956,-300.5 956,-306.5 956,-306.5 956,-318.5 956,-318.5 956,-324.5 950,-330.5 944,-330.5 944,-330.5 914,-330.5 914,-330.5 908,-330.5 902,-324.5 902,-318.5 902,-318.5 902,-306.5 902,-306.5 902,-300.5 908,-294.5 914,-294.5"/>
<text text-anchor="middle" x="929" y="-308.8" font-family="Arial" font-size="14.00" fill="#000000">port</text>
</g>
<!-- system_cpu0_itb_walker_port&#45;&gt;system_membus_slave -->
<g id="edge6" class="edge"><title>system_cpu0_itb_walker_port&#45;&gt;system_membus_slave</title>
<path fill="none" stroke="black" d="M920.552,-294.092C915.329,-285.315 907.751,-275.41 898,-270 842.228,-239.061 665.717,-280.384 612,-246 598.902,-237.616 590.089,-222.678 584.462,-209.396"/>
<polygon fill="black" stroke="black" points="587.597,-207.794 580.763,-199.698 581.057,-210.289 587.597,-207.794"/>
</g>
<!-- system_cpu1_icache_port -->
<g id="node9" class="node"><title>system_cpu1_icache_port</title>
<path fill="#959ead" stroke="#000000" d="M264.5,-294.5C264.5,-294.5 331.5,-294.5 331.5,-294.5 337.5,-294.5 343.5,-300.5 343.5,-306.5 343.5,-306.5 343.5,-318.5 343.5,-318.5 343.5,-324.5 337.5,-330.5 331.5,-330.5 331.5,-330.5 264.5,-330.5 264.5,-330.5 258.5,-330.5 252.5,-324.5 252.5,-318.5 252.5,-318.5 252.5,-306.5 252.5,-306.5 252.5,-300.5 258.5,-294.5 264.5,-294.5"/>
<text text-anchor="middle" x="298" y="-308.8" font-family="Arial" font-size="14.00" fill="#000000">icache_port</text>
</g>
<!-- system_cpu1_icache_port&#45;&gt;system_membus_slave -->
<g id="edge7" class="edge"><title>system_cpu1_icache_port&#45;&gt;system_membus_slave</title>
<path fill="none" stroke="black" d="M319.213,-294.427C329.852,-286.366 343.177,-277.002 356,-270 417.546,-236.393 494.762,-208.72 539.432,-193.996"/>
<polygon fill="black" stroke="black" points="540.566,-197.308 548.988,-190.881 538.396,-190.653 540.566,-197.308"/>
</g>
<!-- system_cpu1_dcache_port -->
<g id="node10" class="node"><title>system_cpu1_dcache_port</title>
<path fill="#959ead" stroke="#000000" d="M150,-294.5C150,-294.5 222,-294.5 222,-294.5 228,-294.5 234,-300.5 234,-306.5 234,-306.5 234,-318.5 234,-318.5 234,-324.5 228,-330.5 222,-330.5 222,-330.5 150,-330.5 150,-330.5 144,-330.5 138,-324.5 138,-318.5 138,-318.5 138,-306.5 138,-306.5 138,-300.5 144,-294.5 150,-294.5"/>
<text text-anchor="middle" x="186" y="-308.8" font-family="Arial" font-size="14.00" fill="#000000">dcache_port</text>
</g>
<!-- system_cpu1_dcache_port&#45;&gt;system_membus_slave -->
<g id="edge8" class="edge"><title>system_cpu1_dcache_port&#45;&gt;system_membus_slave</title>
<path fill="none" stroke="black" d="M206.065,-294.366C216.742,-285.993 230.441,-276.373 244,-270 344.924,-222.564 475.648,-197.729 538.716,-187.796"/>
<polygon fill="black" stroke="black" points="539.252,-191.255 548.604,-186.274 538.188,-184.336 539.252,-191.255"/>
</g>
<!-- system_cpu1_dtb_walker_port -->
<g id="node11" class="node"><title>system_cpu1_dtb_walker_port</title>
<path fill="#7f7c77" stroke="#000000" d="M561,-294.5C561,-294.5 591,-294.5 591,-294.5 597,-294.5 603,-300.5 603,-306.5 603,-306.5 603,-318.5 603,-318.5 603,-324.5 597,-330.5 591,-330.5 591,-330.5 561,-330.5 561,-330.5 555,-330.5 549,-324.5 549,-318.5 549,-318.5 549,-306.5 549,-306.5 549,-300.5 555,-294.5 561,-294.5"/>
<text text-anchor="middle" x="576" y="-308.8" font-family="Arial" font-size="14.00" fill="#000000">port</text>
</g>
<!-- system_cpu1_dtb_walker_port&#45;&gt;system_membus_slave -->
<g id="edge9" class="edge"><title>system_cpu1_dtb_walker_port&#45;&gt;system_membus_slave</title>
<path fill="none" stroke="black" d="M576,-294.37C576,-272.781 576,-235.412 576,-209.852"/>
<polygon fill="black" stroke="black" points="579.5,-209.701 576,-199.701 572.5,-209.701 579.5,-209.701"/>
</g>
<!-- system_cpu1_itb_walker_port -->
<g id="node12" class="node"><title>system_cpu1_itb_walker_port</title>
<path fill="#7f7c77" stroke="#000000" d="M438,-294.5C438,-294.5 468,-294.5 468,-294.5 474,-294.5 480,-300.5 480,-306.5 480,-306.5 480,-318.5 480,-318.5 480,-324.5 474,-330.5 468,-330.5 468,-330.5 438,-330.5 438,-330.5 432,-330.5 426,-324.5 426,-318.5 426,-318.5 426,-306.5 426,-306.5 426,-300.5 432,-294.5 438,-294.5"/>
<text text-anchor="middle" x="453" y="-308.8" font-family="Arial" font-size="14.00" fill="#000000">port</text>
</g>
<!-- system_cpu1_itb_walker_port&#45;&gt;system_membus_slave -->
<g id="edge10" class="edge"><title>system_cpu1_itb_walker_port&#45;&gt;system_membus_slave</title>
<path fill="none" stroke="black" d="M469.333,-294.37C490.653,-272.01 528.113,-232.723 552.487,-207.16"/>
<polygon fill="black" stroke="black" points="555.231,-209.354 559.599,-199.701 550.165,-204.523 555.231,-209.354"/>
</g>
</g>
</svg>
